<mxfile host="app.diagrams.net" agent="Mozilla/5.0 (Windows NT 10.0; Win64; x64) AppleWebKit/537.36 (KHTML, like Gecko) Chrome/131.0.0.0 Safari/537.36 OPR/116.0.0.0" version="26.0.11">
  <diagram id="R2lEEEUBdFMjLlhIrx00" name="Page-1">
    <mxGraphModel dx="1968" dy="1573" grid="1" gridSize="10" guides="1" tooltips="1" connect="1" arrows="1" fold="1" page="1" pageScale="1" pageWidth="850" pageHeight="1100" math="0" shadow="0" extFonts="Permanent Marker^https://fonts.googleapis.com/css?family=Permanent+Marker">
      <root>
        <mxCell id="0" />
        <mxCell id="1" parent="0" />
        <mxCell id="DMGgW1MV-FjS81q1vouq-12" value="" style="rounded=0;whiteSpace=wrap;html=1;" parent="1" vertex="1">
          <mxGeometry x="-760" y="-60" width="520" height="120" as="geometry" />
        </mxCell>
        <mxCell id="DMGgW1MV-FjS81q1vouq-2" value="TIPOFORMULARIO" style="whiteSpace=wrap;html=1;align=center;" parent="1" vertex="1">
          <mxGeometry x="-740" y="-20" width="100" height="40" as="geometry" />
        </mxCell>
        <mxCell id="DMGgW1MV-FjS81q1vouq-3" value="" style="shape=rhombus;perimeter=rhombusPerimeter;whiteSpace=wrap;html=1;align=center;" parent="1" vertex="1">
          <mxGeometry x="-750" y="-210" width="120" height="60" as="geometry" />
        </mxCell>
        <mxCell id="DMGgW1MV-FjS81q1vouq-4" value="" style="endArrow=none;html=1;rounded=0;exitX=0.5;exitY=0;exitDx=0;exitDy=0;entryX=0.5;entryY=1;entryDx=0;entryDy=0;" parent="1" source="DMGgW1MV-FjS81q1vouq-2" target="DMGgW1MV-FjS81q1vouq-3" edge="1">
          <mxGeometry relative="1" as="geometry">
            <mxPoint x="-460" y="60" as="sourcePoint" />
            <mxPoint x="-300" y="60" as="targetPoint" />
          </mxGeometry>
        </mxCell>
        <mxCell id="DMGgW1MV-FjS81q1vouq-53" value="1..1" style="edgeLabel;html=1;align=center;verticalAlign=middle;resizable=0;points=[];" parent="DMGgW1MV-FjS81q1vouq-4" connectable="0" vertex="1">
          <mxGeometry x="-0.0816" relative="1" as="geometry">
            <mxPoint as="offset" />
          </mxGeometry>
        </mxCell>
        <mxCell id="DMGgW1MV-FjS81q1vouq-8" value="INTERNACIONES" style="whiteSpace=wrap;html=1;align=center;" parent="1" vertex="1">
          <mxGeometry x="-360" y="-20" width="100" height="40" as="geometry" />
        </mxCell>
        <mxCell id="DMGgW1MV-FjS81q1vouq-9" value="PEDIDO" style="shape=rhombus;perimeter=rhombusPerimeter;whiteSpace=wrap;html=1;align=center;" parent="1" vertex="1">
          <mxGeometry x="-560" y="-30" width="120" height="60" as="geometry" />
        </mxCell>
        <mxCell id="DMGgW1MV-FjS81q1vouq-11" value="" style="endArrow=none;html=1;rounded=0;entryX=0;entryY=0.5;entryDx=0;entryDy=0;exitX=1;exitY=0.5;exitDx=0;exitDy=0;" parent="1" source="DMGgW1MV-FjS81q1vouq-2" target="DMGgW1MV-FjS81q1vouq-9" edge="1">
          <mxGeometry relative="1" as="geometry">
            <mxPoint x="-430" y="10" as="sourcePoint" />
            <mxPoint x="-350" y="10" as="targetPoint" />
          </mxGeometry>
        </mxCell>
        <mxCell id="DMGgW1MV-FjS81q1vouq-55" value="1..N" style="edgeLabel;html=1;align=center;verticalAlign=middle;resizable=0;points=[];" parent="DMGgW1MV-FjS81q1vouq-11" connectable="0" vertex="1">
          <mxGeometry x="-0.6261" relative="1" as="geometry">
            <mxPoint as="offset" />
          </mxGeometry>
        </mxCell>
        <mxCell id="DMGgW1MV-FjS81q1vouq-13" value="ITEMS" style="whiteSpace=wrap;html=1;align=center;" parent="1" vertex="1">
          <mxGeometry x="-570" y="-300" width="100" height="40" as="geometry" />
        </mxCell>
        <mxCell id="DMGgW1MV-FjS81q1vouq-18" value="" style="endArrow=none;html=1;rounded=0;exitX=0.5;exitY=0;exitDx=0;exitDy=0;entryX=0;entryY=0.5;entryDx=0;entryDy=0;" parent="1" source="DMGgW1MV-FjS81q1vouq-3" target="DMGgW1MV-FjS81q1vouq-13" edge="1">
          <mxGeometry relative="1" as="geometry">
            <mxPoint x="-680" y="150" as="sourcePoint" />
            <mxPoint x="-680" y="180" as="targetPoint" />
            <Array as="points">
              <mxPoint x="-690" y="-280" />
            </Array>
          </mxGeometry>
        </mxCell>
        <mxCell id="DMGgW1MV-FjS81q1vouq-54" value="1..N" style="edgeLabel;html=1;align=center;verticalAlign=middle;resizable=0;points=[];" parent="DMGgW1MV-FjS81q1vouq-18" connectable="0" vertex="1">
          <mxGeometry x="0.8751" y="3" relative="1" as="geometry">
            <mxPoint x="-7" y="1" as="offset" />
          </mxGeometry>
        </mxCell>
        <mxCell id="DMGgW1MV-FjS81q1vouq-29" value="" style="endArrow=none;html=1;rounded=0;entryX=0;entryY=0.5;entryDx=0;entryDy=0;exitX=1;exitY=0.5;exitDx=0;exitDy=0;" parent="1" source="DMGgW1MV-FjS81q1vouq-9" target="DMGgW1MV-FjS81q1vouq-8" edge="1">
          <mxGeometry relative="1" as="geometry">
            <mxPoint x="-410" y="30" as="sourcePoint" />
            <mxPoint x="-330" y="30" as="targetPoint" />
          </mxGeometry>
        </mxCell>
        <mxCell id="DMGgW1MV-FjS81q1vouq-57" value="1..N" style="edgeLabel;html=1;align=center;verticalAlign=middle;resizable=0;points=[];" parent="DMGgW1MV-FjS81q1vouq-29" connectable="0" vertex="1">
          <mxGeometry x="0.5478" y="-1" relative="1" as="geometry">
            <mxPoint as="offset" />
          </mxGeometry>
        </mxCell>
        <mxCell id="DMGgW1MV-FjS81q1vouq-31" value="PEDIDOS_ITEMS" style="shape=rhombus;perimeter=rhombusPerimeter;whiteSpace=wrap;html=1;align=center;" parent="1" vertex="1">
          <mxGeometry x="-415" y="-210" width="120" height="60" as="geometry" />
        </mxCell>
        <mxCell id="DMGgW1MV-FjS81q1vouq-33" value="" style="endArrow=none;html=1;rounded=0;exitX=1;exitY=0.5;exitDx=0;exitDy=0;entryX=0.5;entryY=0;entryDx=0;entryDy=0;" parent="1" source="DMGgW1MV-FjS81q1vouq-13" target="DMGgW1MV-FjS81q1vouq-31" edge="1">
          <mxGeometry relative="1" as="geometry">
            <mxPoint x="-500" y="-240" as="sourcePoint" />
            <mxPoint x="-340" y="-240" as="targetPoint" />
            <Array as="points">
              <mxPoint x="-356" y="-280" />
            </Array>
          </mxGeometry>
        </mxCell>
        <mxCell id="DMGgW1MV-FjS81q1vouq-51" value="1..N" style="edgeLabel;html=1;align=center;verticalAlign=middle;resizable=0;points=[];" parent="DMGgW1MV-FjS81q1vouq-33" connectable="0" vertex="1">
          <mxGeometry x="-0.8171" y="1" relative="1" as="geometry">
            <mxPoint as="offset" />
          </mxGeometry>
        </mxCell>
        <mxCell id="DMGgW1MV-FjS81q1vouq-34" value="" style="endArrow=none;html=1;rounded=0;entryX=0.5;entryY=1;entryDx=0;entryDy=0;exitX=0.78;exitY=-0.002;exitDx=0;exitDy=0;exitPerimeter=0;" parent="1" source="DMGgW1MV-FjS81q1vouq-12" target="DMGgW1MV-FjS81q1vouq-31" edge="1">
          <mxGeometry relative="1" as="geometry">
            <mxPoint x="-510" y="-130" as="sourcePoint" />
            <mxPoint x="-350" y="-130" as="targetPoint" />
          </mxGeometry>
        </mxCell>
        <mxCell id="DMGgW1MV-FjS81q1vouq-52" value="1..N" style="edgeLabel;html=1;align=center;verticalAlign=middle;resizable=0;points=[];" parent="DMGgW1MV-FjS81q1vouq-34" connectable="0" vertex="1">
          <mxGeometry x="-0.6052" relative="1" as="geometry">
            <mxPoint as="offset" />
          </mxGeometry>
        </mxCell>
        <mxCell id="DMGgW1MV-FjS81q1vouq-35" value="PLANTILLA" style="whiteSpace=wrap;html=1;align=center;" parent="1" vertex="1">
          <mxGeometry x="-550" y="250" width="100" height="40" as="geometry" />
        </mxCell>
        <mxCell id="DMGgW1MV-FjS81q1vouq-37" value="D" style="ellipse;whiteSpace=wrap;html=1;aspect=fixed;" parent="1" vertex="1">
          <mxGeometry x="-510" y="320" width="20" height="20" as="geometry" />
        </mxCell>
        <mxCell id="DMGgW1MV-FjS81q1vouq-38" value="" style="endArrow=none;html=1;rounded=0;exitX=0.5;exitY=1;exitDx=0;exitDy=0;entryX=0.5;entryY=0;entryDx=0;entryDy=0;" parent="1" source="DMGgW1MV-FjS81q1vouq-35" target="DMGgW1MV-FjS81q1vouq-37" edge="1">
          <mxGeometry relative="1" as="geometry">
            <mxPoint x="-540" y="280" as="sourcePoint" />
            <mxPoint x="-380" y="280" as="targetPoint" />
          </mxGeometry>
        </mxCell>
        <mxCell id="DMGgW1MV-FjS81q1vouq-39" value="Anatomia" style="whiteSpace=wrap;html=1;align=center;" parent="1" vertex="1">
          <mxGeometry x="-670" y="390" width="100" height="40" as="geometry" />
        </mxCell>
        <mxCell id="DMGgW1MV-FjS81q1vouq-40" value="Interconsulta" style="whiteSpace=wrap;html=1;align=center;" parent="1" vertex="1">
          <mxGeometry x="-550" y="390" width="100" height="40" as="geometry" />
        </mxCell>
        <mxCell id="DMGgW1MV-FjS81q1vouq-41" value="PedidoAnalisis" style="whiteSpace=wrap;html=1;align=center;" parent="1" vertex="1">
          <mxGeometry x="-430" y="390" width="100" height="40" as="geometry" />
        </mxCell>
        <mxCell id="DMGgW1MV-FjS81q1vouq-43" value="" style="endArrow=none;html=1;rounded=0;exitX=0.5;exitY=0;exitDx=0;exitDy=0;entryX=0;entryY=0.5;entryDx=0;entryDy=0;" parent="1" source="DMGgW1MV-FjS81q1vouq-39" target="DMGgW1MV-FjS81q1vouq-37" edge="1">
          <mxGeometry relative="1" as="geometry">
            <mxPoint x="-540" y="280" as="sourcePoint" />
            <mxPoint x="-380" y="280" as="targetPoint" />
            <Array as="points">
              <mxPoint x="-620" y="330" />
            </Array>
          </mxGeometry>
        </mxCell>
        <mxCell id="DMGgW1MV-FjS81q1vouq-44" value="" style="endArrow=none;html=1;rounded=0;exitX=0.5;exitY=0;exitDx=0;exitDy=0;entryX=0.5;entryY=1;entryDx=0;entryDy=0;" parent="1" source="DMGgW1MV-FjS81q1vouq-40" target="DMGgW1MV-FjS81q1vouq-37" edge="1">
          <mxGeometry relative="1" as="geometry">
            <mxPoint x="-590" y="400" as="sourcePoint" />
            <mxPoint x="-500" y="360" as="targetPoint" />
          </mxGeometry>
        </mxCell>
        <mxCell id="DMGgW1MV-FjS81q1vouq-45" value="" style="endArrow=none;html=1;rounded=0;exitX=0.5;exitY=0;exitDx=0;exitDy=0;entryX=1;entryY=0.5;entryDx=0;entryDy=0;" parent="1" source="DMGgW1MV-FjS81q1vouq-41" target="DMGgW1MV-FjS81q1vouq-37" edge="1">
          <mxGeometry relative="1" as="geometry">
            <mxPoint x="-410" y="400" as="sourcePoint" />
            <mxPoint x="-490" y="350" as="targetPoint" />
            <Array as="points">
              <mxPoint x="-380" y="330" />
            </Array>
          </mxGeometry>
        </mxCell>
        <mxCell id="DMGgW1MV-FjS81q1vouq-46" value="" style="shape=rhombus;perimeter=rhombusPerimeter;whiteSpace=wrap;html=1;align=center;" parent="1" vertex="1">
          <mxGeometry x="-560" y="120" width="120" height="60" as="geometry" />
        </mxCell>
        <mxCell id="DMGgW1MV-FjS81q1vouq-47" value="" style="endArrow=none;html=1;rounded=0;exitX=0.5;exitY=1;exitDx=0;exitDy=0;entryX=0.5;entryY=0;entryDx=0;entryDy=0;" parent="1" source="DMGgW1MV-FjS81q1vouq-12" target="DMGgW1MV-FjS81q1vouq-46" edge="1">
          <mxGeometry relative="1" as="geometry">
            <mxPoint x="-540" y="100" as="sourcePoint" />
            <mxPoint x="-380" y="100" as="targetPoint" />
          </mxGeometry>
        </mxCell>
        <mxCell id="DMGgW1MV-FjS81q1vouq-50" value="1..1" style="edgeLabel;html=1;align=center;verticalAlign=middle;resizable=0;points=[];" parent="DMGgW1MV-FjS81q1vouq-47" connectable="0" vertex="1">
          <mxGeometry x="-0.463" relative="1" as="geometry">
            <mxPoint as="offset" />
          </mxGeometry>
        </mxCell>
        <mxCell id="DMGgW1MV-FjS81q1vouq-48" value="" style="endArrow=none;html=1;rounded=0;exitX=0.5;exitY=1;exitDx=0;exitDy=0;entryX=0.5;entryY=0;entryDx=0;entryDy=0;" parent="1" source="DMGgW1MV-FjS81q1vouq-46" target="DMGgW1MV-FjS81q1vouq-35" edge="1">
          <mxGeometry relative="1" as="geometry">
            <mxPoint x="-310" y="139.99999999999977" as="sourcePoint" />
            <mxPoint x="-470" y="220" as="targetPoint" />
            <Array as="points" />
          </mxGeometry>
        </mxCell>
        <mxCell id="DMGgW1MV-FjS81q1vouq-49" value="1..1" style="edgeLabel;html=1;align=center;verticalAlign=middle;resizable=0;points=[];" parent="DMGgW1MV-FjS81q1vouq-48" connectable="0" vertex="1">
          <mxGeometry x="0.7459" relative="1" as="geometry">
            <mxPoint y="-3" as="offset" />
          </mxGeometry>
        </mxCell>
        <mxCell id="DMGgW1MV-FjS81q1vouq-58" value="&lt;u&gt;idPlantilla&lt;/u&gt;&lt;div&gt;+idPedido&lt;/div&gt;" style="ellipse;whiteSpace=wrap;html=1;align=center;" parent="1" vertex="1">
          <mxGeometry x="-480" y="220" width="100" height="40" as="geometry" />
        </mxCell>
        <mxCell id="DMGgW1MV-FjS81q1vouq-59" value="Pasaje a tablas pasando a subclase.&lt;div&gt;Por lo tanto hay que pasar a tablas todas las subclases, osea todos los tipos de plantillas&lt;/div&gt;" style="text;html=1;align=center;verticalAlign=middle;whiteSpace=wrap;rounded=0;" parent="1" vertex="1">
          <mxGeometry x="-380" y="240" width="290" height="80" as="geometry" />
        </mxCell>
      </root>
    </mxGraphModel>
  </diagram>
</mxfile>
